<svg width="20px" height="18px" viewBox="0 0 20 18" version="1.1" xmlns="http://www.w3.org/2000/svg" xmlns:xlink="http://www.w3.org/1999/xlink">
    <path d="M18.7179688,2.60581293 L1.28207031,2.60581293 C0.573828125,2.60581293 0,2.02491559 0,1.30798783 C0,0.591060076 0.573828125,0.0101231939 1.28207031,0.0101231939 L18.7179688,0.0101231939 C19.4261719,0.0101231939 20,0.591020532 20,1.30798783 C20,2.02495513 19.4261719,2.60581293 18.7179688,2.60581293 Z"></path>
    <path d="M11.5384766,10.5957293 L1.28207031,10.5957293 C0.573828125,10.5957293 2.91322522e-13,10.0147924 2.91322522e-13,9.29786464 C2.91322522e-13,8.58093688 0.573828125,8 1.28207031,8 L11.5384766,8 C12.2466797,8 12.8205469,8.58089734 12.8205469,9.29786464 C12.8205469,10.0148319 12.2466797,10.5957293 11.5384766,10.5957293 Z"></path>
    <path d="M18.7179688,17.6 L1.28207031,17.6 C0.573828125,17.6 0,17.0628683 0,16.4 C0,15.7371317 0.573828125,15.2 1.28207031,15.2 L18.7179688,15.2 C19.4261719,15.2 20,15.7370952 20,16.4 C20,17.0628683 19.4261719,17.6 18.7179688,17.6 Z"></path>
</svg>